<?xml version="1.0" encoding="UTF-8"?>
<svg xmlns="http://www.w3.org/2000/svg" width="1080" height="800" viewBox="0 0 1080 800" role="img" aria-labelledby="ttl desc">
<title id="ttl">L06 Gamma与Theta的ATM剩余到期天数对比，BSM教学模型</title>
<desc id="desc">虚构欧式无股息Black-Scholes-Merton模型，S=K=100美元，波动率年化30%，无风险利率0，剩余T=d/365年。上图Gamma随到期天数减少而增大：30天0.04634、7天0.09600、1天0.25405。下图每天Theta绝对值同样增加：30天0.05713、7天0.11836、1天0.31321美元/股/日。全图为模型偏导，不是可交易报价或实际每日损益。</desc>
<rect width="1080" height="800" rx="18" fill="#fff"/>
<g font-family="Microsoft YaHei, Noto Sans CJK SC, sans-serif">
<text x="55" y="43" font-size="27" font-weight="700" fill="#1a3046">ATM Gamma 与 Theta：越靠近到期，局部变化越剧烈</text>
<text x="55" y="76" font-size="16" fill="#536a7e">BSM欧式教学：S=K=$100 · 年化IV=30% · r=q=0 · T=d/365。不是美式实盘Greeks或P/L。</text>
<text x="115" y="124" font-size="18" font-weight="700" fill="#283e54">平值 Gamma（单位Delta每 $1 股价变动）</text><rect x="112" y="148" width="877" height="218" fill="#fbfcfe"/><line x1="115.0" y1="148" x2="115.0" y2="366" stroke="#eff2f6"/><text x="115.0" y="390" text-anchor="middle" fill="#677887" font-size="14">1</text><line x1="203.5" y1="148" x2="203.5" y2="366" stroke="#eff2f6"/><text x="203.5" y="390" text-anchor="middle" fill="#677887" font-size="14">7</text><line x1="306.7" y1="148" x2="306.7" y2="366" stroke="#eff2f6"/><text x="306.7" y="390" text-anchor="middle" fill="#677887" font-size="14">14</text><line x1="542.6" y1="148" x2="542.6" y2="366" stroke="#eff2f6"/><text x="542.6" y="390" text-anchor="middle" fill="#677887" font-size="14">30</text><line x1="763.8" y1="148" x2="763.8" y2="366" stroke="#eff2f6"/><text x="763.8" y="390" text-anchor="middle" fill="#677887" font-size="14">45</text><line x1="985.0" y1="148" x2="985.0" y2="366" stroke="#eff2f6"/><text x="985.0" y="390" text-anchor="middle" fill="#677887" font-size="14">60</text><line x1="115" y1="366.0" x2="985" y2="366.0" stroke="#e5ebf2"/><text x="105" y="371.0" text-anchor="end" fill="#6b7d8e" font-size="13">0.00</text><line x1="115" y1="257.0" x2="985" y2="257.0" stroke="#e5ebf2"/><text x="105" y="262.0" text-anchor="end" fill="#6b7d8e" font-size="13">0.14</text><line x1="115" y1="148.0" x2="985" y2="148.0" stroke="#e5ebf2"/><text x="105" y="153.0" text-anchor="end" fill="#6b7d8e" font-size="13">0.27</text><path d="M115.0,160.9 L129.7,221.0 L144.5,247.6 L159.2,263.4 L174.0,274.3 L188.7,282.3 L203.5,288.5 L218.2,293.5 L233.0,297.6 L247.7,301.2 L262.5,304.2 L277.2,306.8 L291.9,309.1 L306.7,311.2 L321.4,313.1 L336.2,314.7 L350.9,316.3 L365.7,317.7 L380.4,319.0 L395.2,320.2 L409.9,321.3 L424.7,322.3 L439.4,323.3 L454.2,324.2 L468.9,325.0 L483.6,325.8 L498.4,326.6 L513.1,327.3 L527.9,327.9 L542.6,328.6 L557.4,329.2 L572.1,329.8 L586.9,330.3 L601.6,330.9 L616.4,331.4 L631.1,331.8 L645.8,332.3 L660.6,332.8 L675.3,333.2 L690.1,333.6 L704.8,334.0 L719.6,334.4 L734.3,334.8 L749.1,335.1 L763.8,335.5 L778.6,335.8 L793.3,336.1 L808.1,336.4 L822.8,336.7 L837.5,337.0 L852.3,337.3 L867.0,337.6 L881.8,337.9 L896.5,338.1 L911.3,338.4 L926.0,338.6 L940.8,338.9 L955.5,339.1 L970.3,339.3 L985.0,339.6" stroke="#2c73ae" stroke-width="4" fill="none" stroke-linejoin="round"/><circle cx="115.0" cy="160.9" r="5.5" fill="#2c73ae" stroke="#fff" stroke-width="2"/><text x="128.0" y="148.9" font-size="14" fill="#2c73ae" text-anchor="start">0.2541</text><circle cx="203.5" cy="288.5" r="5.5" fill="#2c73ae" stroke="#fff" stroke-width="2"/><text x="210.5" y="276.5" font-size="14" fill="#2c73ae" text-anchor="middle">0.0960</text><circle cx="542.6" cy="328.6" r="5.5" fill="#2c73ae" stroke="#fff" stroke-width="2"/><text x="542.6" y="316.6" font-size="14" fill="#2c73ae" text-anchor="middle">0.0463</text><text x="555" y="411" text-anchor="middle" font-size="14" fill="#627689">剩余日历天数（越靠左，越接近到期）</text>
<text x="115" y="449" font-size="18" font-weight="700" fill="#283e54">|每日 Theta|（美元/股/日，取绝对值）</text><rect x="112" y="473" width="877" height="217" fill="#fbfcfe"/><line x1="115.0" y1="473" x2="115.0" y2="690" stroke="#eff2f6"/><text x="115.0" y="714" text-anchor="middle" fill="#677887" font-size="14">1</text><line x1="203.5" y1="473" x2="203.5" y2="690" stroke="#eff2f6"/><text x="203.5" y="714" text-anchor="middle" fill="#677887" font-size="14">7</text><line x1="306.7" y1="473" x2="306.7" y2="690" stroke="#eff2f6"/><text x="306.7" y="714" text-anchor="middle" fill="#677887" font-size="14">14</text><line x1="542.6" y1="473" x2="542.6" y2="690" stroke="#eff2f6"/><text x="542.6" y="714" text-anchor="middle" fill="#677887" font-size="14">30</text><line x1="763.8" y1="473" x2="763.8" y2="690" stroke="#eff2f6"/><text x="763.8" y="714" text-anchor="middle" fill="#677887" font-size="14">45</text><line x1="985.0" y1="473" x2="985.0" y2="690" stroke="#eff2f6"/><text x="985.0" y="714" text-anchor="middle" fill="#677887" font-size="14">60</text><line x1="115" y1="690.0" x2="985" y2="690.0" stroke="#e5ebf2"/><text x="105" y="695.0" text-anchor="end" fill="#6b7d8e" font-size="13">0.00</text><line x1="115" y1="581.5" x2="985" y2="581.5" stroke="#e5ebf2"/><text x="105" y="586.5" text-anchor="end" fill="#6b7d8e" font-size="13">0.17</text><line x1="115" y1="473.0" x2="985" y2="473.0" stroke="#e5ebf2"/><text x="105" y="478.0" text-anchor="end" fill="#6b7d8e" font-size="13">0.34</text><path d="M115.0,490.1 L129.7,548.7 L144.5,574.6 L159.2,590.1 L174.0,600.6 L188.7,608.4 L203.5,614.5 L218.2,619.3 L233.0,623.4 L247.7,626.8 L262.5,629.7 L277.2,632.3 L291.9,634.6 L306.7,636.6 L321.4,638.4 L336.2,640.0 L350.9,641.5 L365.7,642.9 L380.4,644.2 L395.2,645.3 L409.9,646.4 L424.7,647.4 L439.4,648.3 L454.2,649.2 L468.9,650.0 L483.6,650.8 L498.4,651.6 L513.1,652.3 L527.9,652.9 L542.6,653.5 L557.4,654.1 L572.1,654.7 L586.9,655.2 L601.6,655.8 L616.4,656.2 L631.1,656.7 L645.8,657.2 L660.6,657.6 L675.3,658.0 L690.1,658.4 L704.8,658.8 L719.6,659.2 L734.3,659.6 L749.1,659.9 L763.8,660.2 L778.6,660.6 L793.3,660.9 L808.1,661.2 L822.8,661.5 L837.5,661.8 L852.3,662.1 L867.0,662.3 L881.8,662.6 L896.5,662.8 L911.3,663.1 L926.0,663.3 L940.8,663.6 L955.5,663.8 L970.3,664.0 L985.0,664.2" stroke="#ba6840" stroke-width="4" fill="none" stroke-linejoin="round"/><circle cx="115.0" cy="490.1" r="5.5" fill="#ba6840" stroke="#fff" stroke-width="2"/><text x="128.0" y="478.1" font-size="14" fill="#ba6840" text-anchor="start">0.3132</text><circle cx="203.5" cy="614.5" r="5.5" fill="#ba6840" stroke="#fff" stroke-width="2"/><text x="210.5" y="602.5" font-size="14" fill="#ba6840" text-anchor="middle">0.1184</text><circle cx="542.6" cy="653.5" r="5.5" fill="#ba6840" stroke="#fff" stroke-width="2"/><text x="542.6" y="641.5" font-size="14" fill="#ba6840" text-anchor="middle">0.0571</text><text x="555" y="735" text-anchor="middle" font-size="14" fill="#627689">剩余日历天数（越靠左，越接近到期）</text>
<text x="55" y="753" font-size="14" fill="#566d83">这些曲线只在固定S=K和IV的模型中成立，非任意深虚值/实值期权的定律。</text>
<text x="55" y="777" font-size="14" fill="#566d83">注意：Theta是即时偏导；最后1天不可将该偏导乘1当成完整到期损失，且真实交易还要考虑Bid/Ask及行权。</text>
</g></svg>